HIERARCHY
ROOT Joint1
{
	OFFSET 0.000000 0.000000 0.000000
	CHANNELS 6 Xposition Yposition Zposition Xrotation Yrotation Zrotation
	JOINT Joint2
	{
		OFFSET -0.000000 0.000000 1.456275
		CHANNELS 6 Xposition Yposition Zposition Xrotation Yrotation Zrotation
		JOINT Joint3
		{
			OFFSET -0.000000 0.000002 1.471446
			CHANNELS 6 Xposition Yposition Zposition Xrotation Yrotation Zrotation
			JOINT Joint4
			{
				OFFSET 0.625745 0.000000 0.917755
				CHANNELS 6 Xposition Yposition Zposition Xrotation Yrotation Zrotation
				JOINT Joint5
				{
					OFFSET -0.629534 0.000001 0.940221
					CHANNELS 6 Xposition Yposition Zposition Xrotation Yrotation Zrotation
					JOINT Joint6
					{
						OFFSET -0.000001 0.113772 1.960660
						CHANNELS 6 Xposition Yposition Zposition Xrotation Yrotation Zrotation
						JOINT Joint7
						{
							OFFSET -0.669733 -0.113771 0.388340
							CHANNELS 6 Xposition Yposition Zposition Xrotation Yrotation Zrotation
							End Site
							{
								OFFSET 0.005509 0.005509 0.438980
							}
						}
					}
				}
			}
		}
	}
}
MOTION
Frames: 24
Frame Time: 0.041667
0.000000 0.000000 0.000000 -0.000000 1.019410 0.002803 -0.000000 0.000000 1.456275 -0.000000 -44.983612 0.000000 -0.000000 0.000002 1.471446 0.000000 -1.133462 -0.041466 0.625745 0.000000 0.917755 0.000004 135.027990 -0.000001 -0.629534 0.000001 0.940221 0.000000 1.709737 -0.004863 -0.000001 0.113772 1.960660 -88.309893 89.968304 -0.004059 -0.669733 -0.113771 0.388341 -0.705210 3.566198 134.966341 
0.000000 0.000000 0.000000 -0.000000 1.019410 0.045344 -0.000000 0.000000 1.456275 -0.000000 -44.986085 -0.000000 -0.000000 0.000002 1.471446 -0.000000 -1.133458 -0.068919 0.625744 0.000000 0.917755 0.000004 135.041883 -0.000001 -0.629534 0.000001 0.940221 0.000000 1.709736 0.024580 -0.000001 0.113772 1.960661 -88.307830 89.954992 -0.002628 -0.669733 -0.113771 0.388341 -0.705422 3.566198 134.978253 
0.000000 0.000000 0.000000 -0.000000 1.019410 0.120054 -0.000000 -0.000000 1.456275 -0.000000 -44.990439 -0.000000 -0.000000 0.000002 1.471446 -0.000000 -1.133460 -0.117130 0.625744 0.000000 0.917755 0.000004 135.066267 -0.000001 -0.629534 0.000001 0.940221 -0.000000 1.709736 0.076289 -0.000001 0.113772 1.960661 -88.306587 89.931605 -0.001913 -0.669733 -0.113771 0.388340 -0.705794 3.566198 134.999222 
0.000000 0.000000 0.000000 -0.000000 1.019410 0.230047 -0.000000 -0.000000 1.456275 -0.000000 -44.996846 -0.000000 -0.000000 0.000002 1.471446 -0.000000 -1.133458 -0.188112 0.625744 0.000000 0.917755 0.000004 135.102180 -0.000001 -0.629534 0.000001 0.940221 -0.000000 1.709736 0.152417 -0.000001 0.113772 1.960660 -88.305774 89.897174 -0.001209 -0.669733 -0.113771 0.388340 -0.706342 3.566198 135.030067 
0.000000 0.000000 0.000000 -0.000000 1.019410 0.378439 -0.000000 -0.000000 1.456275 0.000000 -45.005482 -0.000000 -0.000000 0.000002 1.471446 -0.000000 -1.133457 -0.283873 0.625744 0.000000 0.917755 0.000004 135.150620 -0.000001 -0.629533 0.000001 0.940221 -0.000000 1.709736 0.255122 -0.000000 0.113772 1.960661 -88.305166 89.850729 -0.000857 -0.669733 -0.113771 0.388341 -0.707081 3.566197 135.071676 
0.000000 0.000000 0.000000 -0.000000 1.019410 0.568345 -0.000000 0.000000 1.456275 -0.000000 -45.016537 0.000000 -0.000001 0.000002 1.471446 -0.000000 -1.133464 -0.406424 0.625745 0.000000 0.917755 0.000004 135.212610 -0.000001 -0.629534 0.000001 0.940221 -0.000000 1.709736 0.386561 0.000000 0.113772 1.960660 -88.304763 89.791279 -0.000680 -0.669733 -0.113771 0.388340 -0.708028 3.566196 135.124938 
0.000000 0.000000 0.000000 -0.000000 1.019410 0.802881 -0.000000 0.000000 1.456275 0.000000 -45.030187 0.000000 -0.000000 0.000002 1.471446 0.000000 -1.133456 -0.557776 0.625745 0.000000 0.917755 0.000004 135.289177 -0.000001 -0.629533 0.000001 0.940221 -0.000000 1.709736 0.548888 -0.000001 0.113772 1.960660 -88.304592 89.717861 -0.000426 -0.669733 -0.113771 0.388340 -0.709196 3.566193 135.190727 
0.000000 0.000000 0.000000 -0.000000 1.019410 1.085161 -0.000000 0.000000 1.456275 -0.000000 -45.046631 0.000000 -0.000001 0.000002 1.471445 -0.000000 -1.133464 -0.739939 0.625745 0.000000 0.917755 0.000004 135.381330 -0.000001 -0.629534 0.000001 0.940221 0.000000 1.709736 0.744260 -0.000001 0.113772 1.960661 -88.304353 89.629506 -0.000390 -0.669733 -0.113771 0.388339 -0.710602 3.566187 135.269902 
0.000000 0.000000 0.000000 -0.000000 1.019410 1.418302 -0.000000 0.000000 1.456275 0.000000 -45.066022 0.000000 -0.000000 0.000002 1.471446 0.000000 -1.133461 -0.954923 0.625744 0.000000 0.917754 0.000003 135.490094 -0.000001 -0.629533 0.000001 0.940221 0.000000 1.709736 0.974834 -0.000001 0.113772 1.960661 -88.304292 89.525222 -0.000241 -0.669733 -0.113771 0.388340 -0.712261 3.566176 135.363325 
0.000000 0.000000 0.000000 -0.000000 1.019410 1.805419 -0.000000 -0.000000 1.456275 -0.000000 -45.088565 -0.000000 -0.000000 0.000002 1.471446 -0.000000 -1.133458 -1.204740 0.625745 0.000000 0.917755 0.000003 135.616466 -0.000001 -0.629534 0.000001 0.940221 0.000000 1.709736 1.242765 -0.000001 0.113772 1.960660 -88.304176 89.404055 -0.000227 -0.669733 -0.113771 0.388340 -0.714190 3.566164 135.471912 
0.000000 0.000000 0.000000 -0.000000 1.019410 2.249625 -0.000000 0.000000 1.456275 -0.000000 -45.114427 0.000000 -0.000000 0.000002 1.471446 0.000000 -1.133460 -1.491398 0.625744 0.000000 0.917755 0.000003 135.761471 -0.000001 -0.629534 0.000001 0.940221 0.000000 1.709736 1.550210 -0.000001 0.113772 1.960660 -88.304135 89.265013 -0.000174 -0.669733 -0.113771 0.388339 -0.716403 3.566143 135.596494 
0.000000 0.000000 0.000000 -0.000000 1.019410 2.754039 -0.000000 0.000000 1.456275 0.000000 -45.143794 -0.000000 -0.000000 0.000002 1.471446 -0.000000 -1.133457 -1.816908 0.625744 0.000000 0.917755 0.000004 135.926133 -0.000001 -0.629534 0.000001 0.940221 0.000000 1.709736 1.899325 -0.000001 0.113772 1.960660 -88.304087 89.107119 -0.000124 -0.669733 -0.113771 0.388340 -0.718916 3.566114 135.737961 
0.000000 0.000000 0.000000 -0.000000 1.019410 3.321773 -0.000000 0.000000 1.456275 0.000000 -45.176849 -0.000000 -0.000000 0.000002 1.471446 0.000000 -1.133461 -2.183281 0.625745 0.000000 0.917755 0.000004 136.111491 -0.000001 -0.629534 0.000001 0.940221 0.000000 1.709736 2.292265 -0.000001 0.113772 1.960660 -88.304039 88.929418 -0.000126 -0.669733 -0.113771 0.388340 -0.721744 3.566074 135.897200 
0.000000 0.000000 0.000000 -0.000000 1.019410 3.955944 -0.000000 -0.000000 1.456275 -0.000000 -45.213773 -0.000001 -0.000000 0.000002 1.471446 -0.000000 -1.133461 -2.592528 0.625745 0.000000 0.917755 0.000003 136.318500 -0.000001 -0.629534 0.000001 0.940221 0.000000 1.709736 2.731189 -0.000001 0.113772 1.960660 -88.304046 88.730906 -0.000093 -0.669733 -0.113771 0.388339 -0.724903 3.566020 136.075058 
0.000000 0.000000 0.000000 -0.000000 1.019410 4.659667 -0.000000 0.000000 1.456275 -0.000000 -45.254743 -0.000000 -0.000000 0.000002 1.471446 0.000000 -1.133458 -3.046659 0.625744 0.000000 0.917755 0.000003 136.548240 -0.000001 -0.629533 0.000001 0.940221 -0.000000 1.709736 3.218251 -0.000002 0.113772 1.960660 -88.304005 88.510632 -0.000077 -0.669733 -0.113771 0.388340 -0.728408 3.565947 136.272437 
0.000000 0.000000 0.000000 -0.000000 1.019410 5.436056 -0.000000 -0.000000 1.456275 -0.000000 -45.299956 0.000000 -0.000000 0.000002 1.471446 -0.000001 -1.133458 -3.547684 0.625745 0.000000 0.917755 0.000003 136.801695 -0.000001 -0.629534 0.000001 0.940221 0.000000 1.709736 3.755606 -0.000001 0.113772 1.960660 -88.303998 88.267607 -0.000076 -0.669733 -0.113771 0.388340 -0.732274 3.565854 136.490184 
0.000000 0.000000 0.000000 -0.000000 1.019410 6.284006 -0.000000 0.000000 1.456275 -0.000001 -45.349321 -0.000001 -0.000001 0.000002 1.471446 -0.000000 -1.133462 -4.094886 0.625745 0.000000 0.917755 0.000004 137.078523 -0.000001 -0.629534 0.000001 0.940222 0.000000 1.709736 4.342490 -0.000001 0.113772 1.960660 -88.303978 88.002193 -0.000044 -0.669733 -0.113771 0.388341 -0.736497 3.565735 136.728011 
0.000000 0.000000 0.000000 -0.000000 1.019410 7.185519 -0.000000 -0.000000 1.456275 -0.000001 -45.401808 0.000000 -0.000000 0.000002 1.471446 0.000000 -1.133456 -4.676656 0.625745 0.000000 0.917756 0.000003 137.372808 -0.000001 -0.629534 0.000001 0.940221 -0.000000 1.709736 4.966447 -0.000001 0.113772 1.960660 -88.303971 87.719997 -0.000065 -0.669733 -0.113771 0.388340 -0.740986 3.565590 136.980864 
0.000000 0.000000 0.000000 -0.000000 1.019410 8.118373 -0.000000 0.000000 1.456275 0.000001 -45.456121 0.000001 -0.000000 0.000002 1.471446 0.000001 -1.133461 -5.278651 0.625745 0.000000 0.917755 0.000004 137.677339 -0.000001 -0.629534 0.000001 0.940221 -0.000001 1.709736 5.612095 -0.000001 0.113772 1.960660 -88.303964 87.427992 -0.000046 -0.669733 -0.113771 0.388340 -0.745629 3.565420 137.242488 
0.000000 0.000000 0.000000 -0.000000 1.019410 9.060353 -0.000000 0.000000 1.456275 0.000001 -45.510964 -0.000001 -0.000000 0.000002 1.471446 0.000001 -1.133457 -5.886533 0.625745 0.000000 0.917755 0.000003 137.984848 -0.000001 -0.629533 0.000001 0.940221 0.000000 1.709736 6.264058 -0.000001 0.113772 1.960660 -88.303944 87.133140 -0.000033 -0.669733 -0.113771 0.388340 -0.750319 3.565224 137.506693 
0.000000 0.000000 0.000000 -0.000000 1.019410 9.989233 -0.000000 0.000000 1.456275 -0.000001 -45.565046 -0.000000 -0.000001 0.000002 1.471445 -0.000000 -1.133461 -6.485964 0.625744 0.000000 0.917755 0.000003 138.288081 -0.000001 -0.629534 0.000001 0.940221 -0.000000 1.709737 6.906955 -0.000001 0.113772 1.960660 -88.303950 86.842399 -0.000038 -0.669733 -0.113771 0.388340 -0.754940 3.565014 137.767211 
0.000000 0.000000 0.000000 -0.000000 1.019410 10.882797 -0.000000 0.000000 1.456275 0.000002 -45.617078 0.000002 -0.000000 0.000002 1.471446 0.000001 -1.133459 -7.062604 0.625744 0.000000 0.917755 0.000003 138.579812 -0.000001 -0.629533 0.000001 0.940221 0.000000 1.709737 7.525409 -0.000001 0.113772 1.960660 -88.303930 86.562689 -0.000043 -0.669733 -0.113771 0.388339 -0.759386 3.564788 138.017824 
0.000000 0.000000 0.000000 -0.000000 1.019410 11.728413 -0.000000 0.000000 1.456275 0.000000 -45.666307 -0.000002 -0.000000 0.000002 1.471446 0.000000 -1.133461 -7.608302 0.625744 0.000000 0.917755 0.000004 138.855847 -0.000002 -0.629534 0.000001 0.940221 -0.000001 1.709737 8.110679 -0.000001 0.113772 1.960661 -88.303930 86.297992 -0.000030 -0.669733 -0.113771 0.388340 -0.763592 3.564559 138.254995 
0.000000 0.000000 0.000000 -0.000000 1.019410 12.551810 -0.000000 0.000000 1.456275 0.000001 -45.714248 -0.000000 -0.000001 0.000002 1.471446 0.000001 -1.133459 -8.139661 0.625744 0.000000 0.917755 0.000003 139.124670 -0.000001 -0.629534 0.000001 0.940221 -0.000001 1.709736 8.680567 -0.000000 0.113772 1.960660 -88.303916 86.040262 -0.000036 -0.669733 -0.113771 0.388340 -0.767688 3.564318 138.485938 
